<?xml version="1.0" encoding="iso-8859-1" standalone="no"?> 
<?xml-stylesheet href="introtext.css" type="text/css"?> 
<svg xmlns="http://www.w3.org/2000/svg" xmlns:xlink="http://www.w3.org/1999/xlink" width="161.70242pt" height="20.43205pt" viewBox="-80.85121 -8.56989 161.70242 20.43205 "> 
<g transform="translate(0,11.86217 ) scale(1,-1) translate(0,8.56989 )"> 
                      <g stroke="#000" fill="#000">
 <g stroke-width="0.4">
 <g transform="translate(-80.85121,-2.92)">
 <g fill="#000">
 <text style="stroke:none" transform="scale(1,-1) translate(80.85121,0)" text-anchor="middle"  font-size="10.95"> 
   <g transform="translate(-6.48128,0.0)">
 <g fill="#000">
 <text style="stroke:none" transform="scale(1,-1) translate(6.48128,0)" text-anchor="middle"  font-size="10.95"> 
<g fill="#000">
 <g stroke="none"> <mi 
>A</mi><tspan baseline-shift="sub"><mn>0</mn></tspan></g> </g>
 </text> 
</g>
 </g>
              <g transform="translate(-6.48128,0.0)">
 <g fill="#000">
 <text style="stroke:none" transform="scale(1,-1) translate(6.48128,0)" text-anchor="middle"  font-size="10.95"> 
<g fill="#000">
 <g stroke="none"> <mi 
>A</mi><tspan baseline-shift="sub"><mn>1</mn></tspan></g> </g>
 </text> 
</g>
 </g>
              <g transform="translate(-6.48128,0.0)">
 <g fill="#000">
 <text style="stroke:none" transform="scale(1,-1) translate(6.48128,0)" text-anchor="middle"  font-size="10.95"> 
<g fill="#000">
 <g stroke="none"> <mi 
>A</mi><tspan baseline-shift="sub"><mn>2</mn></tspan></g> </g>
 </text> 
</g>
 </g>
            <g transform="translate(-3.1291,0.0)">
 <g fill="#000">
 <text style="stroke:none" transform="scale(1,-1) translate(3.1291,0)" text-anchor="middle"  font-size="10.95"> 
<g fill="#000">
 <g stroke="none"> <mo 
class="MathClass-rel">⋯</mo></g> </g>
 </text> 
</g>
 </g>
 </text> 
</g>
 </g>
 <g stroke-width="0.43799">
 <path d=" M -58.25952 -0.18251 L -32.8175 -0.18251  " fill="none"/>
 <g transform="translate(-32.59851,-0.18251)">
 <g stroke-dasharray="none" stroke-dashoffset="0.0">
 <g stroke-linecap="round">
 <g stroke-linejoin="round">
 <path d=" M -2.27753 2.6279 C -1.86143 1.05113 -0.9342 0.30658 0.0 0.0 C -0.9342 -0.30658 -1.86143 -1.05113 -2.27753 -2.6279  " fill="none"/>
 </g>
 </g>
 </g>
  </g>
 <g transform="translate(-49.88548,3.94933)">
 <g fill="#000">
 <text style="stroke:none" transform="scale(1,-1) translate(4.56596,0)" text-anchor="middle"  font-size="10.95"> 
<g fill="#000">
 <g stroke="none"> <mi 
>f</mi><tspan baseline-shift="sub"><mn>0</mn> </tspan> </g> </g>
 </text> 
</g>
 </g>
 </g>
 <g stroke-width="0.43799">
 <path d=" M -9.58783 -0.18251 L 15.85419 -0.18251  " fill="none"/>
 <g transform="translate(16.07318,-0.18251)">
 <g stroke-dasharray="none" stroke-dashoffset="0.0">
 <g stroke-linecap="round">
 <g stroke-linejoin="round">
 <path d=" M -2.27753 2.6279 C -1.86143 1.05113 -0.9342 0.30658 0.0 0.0 C -0.9342 -0.30658 -1.86143 -1.05113 -2.27753 -2.6279  " fill="none"/>
 </g>
 </g>
 </g>
  </g>
 <g transform="translate(-1.21379,3.94933)">
 <g fill="#000">
 <text style="stroke:none" transform="scale(1,-1) translate(4.56596,0)" text-anchor="middle"  font-size="10.95"> 
<g fill="#000">
 <g stroke="none"> <mi 
>f</mi><tspan baseline-shift="sub"><mn>1</mn> </tspan> </g> </g>
 </text> 
</g>
 </g>
 </g>
 <g stroke-width="0.43799">
 <path d=" M 39.08386 -0.18251 L 64.52588 -0.18251  " fill="none"/>
 <g transform="translate(64.74487,-0.18251)">
 <g stroke-dasharray="none" stroke-dashoffset="0.0">
 <g stroke-linecap="round">
 <g stroke-linejoin="round">
 <path d=" M -2.27753 2.6279 C -1.86143 1.05113 -0.9342 0.30658 0.0 0.0 C -0.9342 -0.30658 -1.86143 -1.05113 -2.27753 -2.6279  " fill="none"/>
 </g>
 </g>
 </g>
  </g>
 <g transform="translate(47.4579,3.94933)">
 <g fill="#000">
 <text style="stroke:none" transform="scale(1,-1) translate(4.56596,0)" text-anchor="middle"  font-size="10.95"> 
<g fill="#000">
 <g stroke="none"> <mi 
>f</mi><tspan baseline-shift="sub"><mn>2</mn> </tspan> </g> </g>
 </text> 
</g>
 </g>
 </g>
 </g>
 </g>
  </g> 
</svg> 
