<?xml version="1.0" encoding="UTF-8" standalone="no"?>
<svg
   xmlns:dc="http://purl.org/dc/elements/1.1/"
   xmlns:cc="http://creativecommons.org/ns#"
   xmlns:rdf="http://www.w3.org/1999/02/22-rdf-syntax-ns#"
   xmlns:svg="http://www.w3.org/2000/svg"
   xmlns="http://www.w3.org/2000/svg"
   viewBox="0 0 340.01334 94.493332"
   height="94.493332"
   width="340.01334"
   xml:space="preserve"
   id="svg29"
   version="1.1"><metadata
     id="metadata35"><rdf:RDF><cc:Work
         rdf:about=""><dc:format>image/svg+xml</dc:format><dc:type
           rdf:resource="http://purl.org/dc/dcmitype/StillImage" /><dc:title></dc:title></cc:Work></rdf:RDF></metadata><defs
     id="defs33"><clipPath
       id="clipPath47"
       clipPathUnits="userSpaceOnUse"><path
         id="path45"
         d="m 704.844,352.422 c 0,93.473 -37.141,183.101 -103.231,249.191 -66.09,66.09 -155.718,103.231 -249.191,103.231 -93.473,0 -183.106,-37.141 -249.195,-103.231 C 37.1367,535.523 0,445.895 0,352.422 0,258.949 37.1367,169.316 103.227,103.227 169.316,37.1367 258.949,0 352.422,0 c 93.473,0 183.101,37.1367 249.191,103.227 66.09,66.089 103.231,155.722 103.231,249.195 z" /></clipPath><clipPath
       id="clipPath57"
       clipPathUnits="userSpaceOnUse"><path
         id="path55"
         d="m 704.844,352.422 c 0,93.473 -37.141,183.101 -103.231,249.191 -66.09,66.09 -155.718,103.231 -249.191,103.231 -93.473,0 -183.106,-37.141 -249.195,-103.231 C 37.1367,535.523 0,445.895 0,352.422 0,258.949 37.1367,169.316 103.227,103.227 169.316,37.1367 258.949,0 352.422,0 c 93.473,0 183.101,37.1367 249.191,103.227 66.09,66.089 103.231,155.722 103.231,249.195 z" /></clipPath><clipPath
       id="clipPath63"
       clipPathUnits="userSpaceOnUse"><path
         id="path61"
         d="M 652.402,699.543 C 586.648,747.223 507.098,773.367 424.84,773.367 322.02,773.367 223.422,732.52 150.723,659.82 78.0234,587.117 37.1758,488.52 37.1758,385.703 37.1758,282.883 78.0234,184.285 150.723,111.586 213.719,48.5898 296.164,9.50781 383.949,0.195313 Z" /></clipPath><clipPath
       id="clipPath75"
       clipPathUnits="userSpaceOnUse"><path
         id="path73"
         d="m 704.844,352.422 c 0,93.473 -37.141,183.101 -103.231,249.191 -66.09,66.09 -155.718,103.231 -249.191,103.231 -93.473,0 -183.106,-37.141 -249.195,-103.231 C 37.1367,535.523 0,445.895 0,352.422 0,258.949 37.1367,169.316 103.227,103.227 169.316,37.1367 258.949,0 352.422,0 c 93.473,0 183.101,37.1367 249.191,103.227 66.09,66.089 103.231,155.722 103.231,249.195 z" /></clipPath></defs><g
     transform="matrix(1.3333333,0,0,-1.3333333,0,94.493333)"
     id="g37"><g
       transform="scale(0.1)"
       id="g39"><g
         id="g41"><g
           clip-path="url(#clipPath47)"
           id="g43"><path
             id="path49"
             style="fill:#2e3192;fill-opacity:1;fill-rule:nonzero;stroke:none"
             d="m 704.844,352.422 c 0,93.473 -37.141,183.101 -103.231,249.191 -66.09,66.09 -155.718,103.231 -249.191,103.231 -93.473,0 -183.106,-37.141 -249.195,-103.231 C 37.1367,535.523 0,445.895 0,352.422 0,258.949 37.1367,169.316 103.227,103.227 169.316,37.1367 258.949,0 352.422,0 c 93.473,0 183.101,37.1367 249.191,103.227 66.09,66.089 103.231,155.722 103.231,249.195" /></g></g><g
         id="g51"><g
           clip-path="url(#clipPath57)"
           id="g53"><g
             clip-path="url(#clipPath63)"
             id="g59"><path
               id="path65"
               style="fill:#ffffff;fill-opacity:1;fill-rule:nonzero;stroke:none"
               d="m 431.691,288.785 c 1.489,7.809 7.473,25.379 11.024,33.969 l 61.89,154.223 c 7.872,19.914 16.696,40.996 21.786,57.785 h 4.297 c -0.676,-21.477 0.273,-45.289 1.32,-87.848 l 2.691,-128.066 c 0.317,-17.18 -4.347,-25.379 -20.355,-25.379 l -0.66,-4.684 h 62.082 l 0.656,4.684 c -5.465,0 -9.711,3.125 -10.145,22.254 l -4.308,222.16 c -0.196,12.496 8.601,19.523 18.363,19.523 l 0.66,4.688 h -74.965 c -1.269,-6.25 -5.203,-17.574 -8.199,-24.992 L 440.105,390.297 c -7.375,-19.129 -19.292,-51.145 -22.433,-67.934 h -4.297 c 1.578,16.789 -1.34,48.805 -3.336,67.934 l -16.457,146.805 c -0.91,7.418 -1.66,18.742 -1.172,24.992 h -74.969 l -0.656,-4.688 c 9.762,0 16.582,-7.027 12.875,-19.523 L 262.906,315.723 C 257.094,296.594 251.969,293.469 246.5,293.469 l -0.656,-4.684 h 62.082 l 0.656,4.684 c -16.008,0 -18.371,8.199 -13.223,25.379 l 38.692,128.066 c 13.012,42.559 20.652,66.371 26.012,87.848 h 4.296 c 0.375,-16.789 3.266,-37.871 5.543,-57.785 l 18.539,-154.223 c 1.137,-8.59 2.184,-26.16 1.477,-33.969" /><path
               id="path67"
               style="fill:#ffffff;fill-opacity:1;fill-rule:nonzero;stroke:none"
               d="m 238.98,390.527 c -1.757,-12.492 -11.335,-19.519 -22.656,-19.519 l -0.66,-4.684 h 71.059 l 0.66,4.684 c -11.32,0 -18.926,7.027 -17.168,19.519 l 31.605,224.895 c 1.758,12.496 11.336,19.519 22.657,19.519 l 0.66,4.688 h -71.059 l -0.66,-4.688 c 11.324,0 18.926,-7.023 17.168,-19.519" /></g></g></g><g
         id="g69"><g
           clip-path="url(#clipPath75)"
           id="g71"><path
             id="path77"
             style="fill:none;stroke:#ffffff;stroke-width:4.35142994;stroke-linecap:round;stroke-linejoin:round;stroke-miterlimit:10;stroke-dasharray:none;stroke-opacity:1"
             d="M 100.086,323.625 H 216.391 L 383.949,0.195313 652.402,699.543" /><path
             id="path79"
             style="fill:#ffffff;fill-opacity:1;fill-rule:nonzero;stroke:none"
             d="M 216.391,323.625 H 158.238 L 325.801,0.195313 h 58.148" /></g></g><g
         transform="scale(10)"
         id="g81"><text
           id="text87"
           style="font-variant:normal;font-weight:normal;font-size:15.94019985px;font-family:Calibri;-inkscape-font-specification:Calibri;writing-mode:lr-tb;fill:#2e3192;fill-opacity:1;fill-rule:nonzero;stroke:none"
           transform="matrix(1,0,0,-1,78.8359,39.8449)"><tspan
             id="tspan83"
             y="0"
             x="0 4.0176811 12.396003 18.467331 23.80792 27.466318 32.806908 41.18523 46.366459 57.930149 66.34111 74.834381 88.463249 95.971046 101.31163 109.68996 117.63522 130.37418 137.88179 143.2224 146.88078 153.62589">InstituteofMathematics</tspan><tspan
             id="tspan85"
             y="16.7379"
             x="0 8.5088339 14.470289 22.415552 29.160625 41.157459 50.392998 57.010532 64.661766 73.040092 80.985352 93.437477 104.28273 112.69369 121.18696 128.51193 135.257 138.91539 146.86067 155.239 161.98407 169.92934">CzechAcademyofSciences</tspan></text>
</g></g></g></svg>